<?xml version="1.0" encoding="iso-8859-1"?>
<!-- Generator: Adobe Illustrator 19.0.0, SVG Export Plug-In . SVG Version: 6.00 Build 0)  -->
<svg version="1.1" id="Layer_1" xmlns="http://www.w3.org/2000/svg" xmlns:xlink="http://www.w3.org/1999/xlink" x="0px" y="0px"
	 viewBox="0 0 512 512" style="enable-background:new 0 0 512 512;" xml:space="preserve">
<rect x="50.814" y="20.582" style="fill:#CD2A00;" width="410.373" height="470.831"/>
<g>
	<rect x="50.814" y="20.582" style="fill:#AB2300;" width="109.798" height="470.831"/>
	<path style="fill:#AB2300;" d="M461.186,254.836L398.174,468.62c-1.224,4.151,1.15,8.51,5.302,9.732
		c0.74,0.217,1.485,0.322,2.218,0.322c3.385,0,6.509-2.211,7.514-5.624l47.978-162.774L461.186,254.836L461.186,254.836z"/>
	<path style="fill:#AB2300;" d="M337.906,230.509c-3.474,0-6.535,2.288-7.517,5.622l-68.527,232.49
		c-1.224,4.151,1.149,8.509,5.301,9.732c0.74,0.217,1.485,0.322,2.219,0.322c3.385,0,6.509-2.211,7.514-5.624l61.008-206.986
		v-35.556H337.906z"/>
	<path style="fill:#AB2300;" d="M200.854,230.509L200.854,230.509c-3.475,0-6.535,2.287-7.517,5.622l-68.527,232.49
		c-1.224,4.151,1.149,8.51,5.301,9.732c4.149,1.219,8.509-1.15,9.732-5.302l61.009-206.987l0,0v-35.555H200.854z"/>
</g>
<rect x="50.814" y="20.582" style="fill:#D8D7DA;" width="410.373" height="41.169"/>
<rect x="50.814" y="20.582" style="fill:#C6C5CA;" width="109.798" height="41.169"/>
<rect x="50.814" y="450.246" style="fill:#D8D7DA;" width="410.373" height="41.169"/>
<rect x="50.814" y="450.246" style="fill:#C6C5CA;" width="109.798" height="41.169"/>
<path style="fill:#AB2300;" d="M458.58,41.166H50.771c-9.195,0-16.718-7.523-16.718-16.718v-7.729C34.052,7.523,41.575,0,50.771,0
	H458.58c9.195,0,16.718,7.523,16.718,16.718v7.729C475.298,33.643,467.775,41.166,458.58,41.166z"/>
<path style="fill:#891C00;" d="M145.175,24.447v-7.729C145.175,7.523,152.698,0,161.893,0H50.771
	c-9.195,0-16.718,7.523-16.718,16.718v7.729c0,9.195,7.523,16.718,16.718,16.718h111.123
	C152.698,41.166,145.175,33.643,145.175,24.447z"/>
<path style="fill:#AB2300;" d="M458.58,512H50.771c-9.195,0-16.718-7.523-16.718-16.718v-7.729c0-9.195,7.523-16.718,16.718-16.718
	H458.58c9.195,0,16.718,7.523,16.718,16.718v7.729C475.298,504.477,467.775,512,458.58,512z"/>
<path style="fill:#891C00;" d="M145.175,495.282v-7.729c0-9.195,7.523-16.718,16.718-16.718H50.771
	c-9.195,0-16.718,7.523-16.718,16.718v7.729c0,9.195,7.523,16.718,16.718,16.718h111.123
	C152.698,512,145.175,504.477,145.175,495.282z"/>
<path style="fill:#FFC477;" d="M469.022,234.447V41.166c0-4.329-3.508-7.837-7.837-7.837c-4.329,0-7.837,3.508-7.837,7.837v197.178
	c0,0.598,0.073,1.178,0.2,1.737L393.552,443.63l-60.84-206.417V41.166c0-4.329-3.508-7.837-7.837-7.837s-7.837,3.508-7.837,7.837
	v196.047l-60.69,205.902l-60.69-205.901V41.166c0-4.329-3.509-7.837-7.837-7.837c-4.328,0-7.837,3.508-7.837,7.837v196.049
	L111.78,468.619c-1.224,4.151,1.149,8.51,5.301,9.732c4.149,1.219,8.509-1.15,9.732-5.302l61.009-206.987l61.01,206.987
	c0.004,0.009,0.008,0.017,0.011,0.027c0.735,2.451,2.651,4.497,5.289,5.276c0.74,0.217,1.485,0.322,2.219,0.322
	c0.532,0,1.052-0.073,1.564-0.178c0.309-0.054,0.541-0.112,0.648-0.143c0.053-0.016,0.102-0.038,0.156-0.054
	c0.077-0.025,0.153-0.053,0.229-0.08c0.328-0.115,0.646-0.247,0.948-0.4c0.024-0.013,0.048-0.022,0.072-0.033
	c0.336-0.174,0.653-0.376,0.955-0.593c0.051-0.037,0.1-0.074,0.15-0.112c0.299-0.226,0.583-0.467,0.843-0.73
	c0.026-0.026,0.049-0.056,0.075-0.083c0.238-0.248,0.457-0.512,0.659-0.787c0.043-0.059,0.088-0.114,0.13-0.173
	c0.206-0.297,0.388-0.609,0.552-0.931c0.037-0.071,0.071-0.143,0.104-0.216c0.162-0.345,0.302-0.699,0.412-1.065
	c0.004-0.015,0.013-0.028,0.017-0.043l61.009-206.987l61.008,206.987c1.023,3.467,4.231,5.682,7.677,5.612
	c0.063,0.006,0.116,0.011,0.148,0.011c3.385,0,6.509-2.211,7.514-5.624l68.525-232.49
	C470.378,238.425,470.049,236.238,469.022,234.447z"/>
<g>
	<path style="fill:#FFA733;" d="M160.612,302.944L111.78,468.62c-1.224,4.151,1.149,8.51,5.301,9.732
		c4.149,1.219,8.509-1.15,9.732-5.302l33.799-114.671V302.944z"/>
	<path style="fill:#FFA733;" d="M126.814,468.619L58.607,237.215V41.166c0-4.329-3.509-7.837-7.837-7.837s-7.837,3.508-7.837,7.837
		v197.042c0,0.017,0,0.033,0,0.05v0.087c0,0.066,0.008,0.131,0.009,0.195c0.004,0.181,0.01,0.362,0.027,0.543
		c0.013,0.131,0.034,0.259,0.053,0.389c0.018,0.122,0.032,0.244,0.056,0.367c0.036,0.186,0.084,0.368,0.133,0.55
		c0.016,0.057,0.025,0.115,0.042,0.172l0.022,0.075c0.006,0.02,0.011,0.041,0.018,0.061l68.486,232.353
		c2.792,7.094,8.992,5.519,9.732,5.302C125.664,477.129,128.038,472.77,126.814,468.619z"/>
</g>
<g>
	<path style="fill:#3E3D42;" d="M338.118,254.936h-26.487c-4.598,0-8.359-3.762-8.359-8.359v-21.563
		c0-4.598,3.762-8.359,8.359-8.359h26.487c4.598,0,8.359,3.762,8.359,8.359v21.563C346.478,251.175,342.716,254.936,338.118,254.936
		z"/>
	<path style="fill:#3E3D42;" d="M474.43,254.936h-26.487c-4.598,0-8.359-3.762-8.359-8.359v-21.563c0-4.598,3.762-8.359,8.359-8.359
		h26.487c4.598,0,8.359,3.762,8.359,8.359v21.563C482.789,251.175,479.027,254.936,474.43,254.936z"/>
	<path style="fill:#3E3D42;" d="M201.385,254.936h-26.486c-4.598,0-8.359-3.762-8.359-8.359v-21.563
		c0-4.598,3.762-8.359,8.359-8.359h26.486c4.598,0,8.359,3.762,8.359,8.359v21.563C209.744,251.175,205.983,254.936,201.385,254.936
		z"/>
	<path style="fill:#3E3D42;" d="M64.057,254.936H37.57c-4.598,0-8.359-3.762-8.359-8.359v-21.563c0-4.598,3.762-8.359,8.359-8.359
		h26.486c4.598,0,8.359,3.762,8.359,8.359v21.563C72.417,251.175,68.655,254.936,64.057,254.936z"/>
</g>
<g>
	<path style="fill:#2D2D30;" d="M50.814,246.577v-21.563c0-4.598,3.762-8.359,8.359-8.359H37.57c-4.598,0-8.359,3.762-8.359,8.359
		v21.563c0,4.598,3.762,8.359,8.359,8.359h21.602C54.576,254.936,50.814,251.175,50.814,246.577z"/>
	<path style="fill:#2D2D30;" d="M188.142,246.577v-21.563c0-4.598,3.762-8.359,8.359-8.359h-21.602
		c-4.598,0-8.359,3.762-8.359,8.359v21.563c0,4.598,3.762,8.359,8.359,8.359h21.602
		C191.904,254.936,188.142,251.175,188.142,246.577z"/>
	<path style="fill:#2D2D30;" d="M324.875,246.577v-21.563c0-4.598,3.762-8.359,8.359-8.359h-21.602
		c-4.598,0-8.359,3.762-8.359,8.359v21.563c0,4.598,3.762,8.359,8.359,8.359h21.602
		C328.637,254.936,324.875,251.175,324.875,246.577z"/>
	<path style="fill:#2D2D30;" d="M461.186,246.577v-21.563c0-4.598,3.762-8.359,8.359-8.359h-21.602
		c-4.598,0-8.359,3.762-8.359,8.359v21.563c0,4.598,3.762,8.359,8.359,8.359h21.602
		C464.947,254.936,461.186,251.175,461.186,246.577z"/>
</g>
<g>
</g>
<g>
</g>
<g>
</g>
<g>
</g>
<g>
</g>
<g>
</g>
<g>
</g>
<g>
</g>
<g>
</g>
<g>
</g>
<g>
</g>
<g>
</g>
<g>
</g>
<g>
</g>
<g>
</g>
</svg>
