<?xml version="1.0" encoding="iso-8859-1"?>
<!-- Generator: Adobe Illustrator 19.0.0, SVG Export Plug-In . SVG Version: 6.00 Build 0)  -->
<svg version="1.1" id="Layer_1" xmlns="http://www.w3.org/2000/svg" xmlns:xlink="http://www.w3.org/1999/xlink" x="0px" y="0px"
	 viewBox="0 0 512 512" style="enable-background:new 0 0 512 512;" xml:space="preserve">
<rect x="20.156" y="98.962" style="fill:#F95428;" width="471.687" height="314.062"/>
<path style="fill:#F7B239;" d="M491.844,111.873h-11.02l-67.592,123.919l-67.592-123.919h-22.04l-67.592,123.919l-67.592-123.919
	h-22.053L98.769,235.792L31.177,111.873h-11.02v20.208L87.749,256L20.156,379.919v20.208h11.02l67.592-123.919l67.592,123.919
	h22.053l67.592-123.919l67.592,123.919h22.04l67.592-123.919l67.592,123.919h11.02v-20.221L424.251,256l67.592-123.906
	L491.844,111.873L491.844,111.873z M177.394,379.919L109.802,256l67.592-123.919L244.973,256L177.394,379.919z M334.619,379.919
	L267.027,256l67.592-123.919L402.211,256L334.619,379.919z"/>
<rect x="406.211" y="111.867" style="opacity:0.25;fill:#4D4D4D;enable-background:new    ;" width="85.632" height="288.254"/>
<rect y="61.869" style="fill:#E6E6E6;" width="512" height="54.688"/>
<rect x="425.813" y="61.869" style="opacity:0.25;fill:#4D4D4D;enable-background:new    ;" width="86.187" height="54.688"/>
<polygon style="fill:#E6E6E6;" points="512,395.439 512,450.131 0,450.131 0,395.439 20.156,395.439 491.844,395.439 "/>
<rect x="425.813" y="395.436" style="opacity:0.25;fill:#4D4D4D;enable-background:new    ;" width="86.187" height="54.688"/>
<g>
</g>
<g>
</g>
<g>
</g>
<g>
</g>
<g>
</g>
<g>
</g>
<g>
</g>
<g>
</g>
<g>
</g>
<g>
</g>
<g>
</g>
<g>
</g>
<g>
</g>
<g>
</g>
<g>
</g>
</svg>
