<svg height="512pt" viewBox="0 -30 512 512" width="512pt" xmlns="http://www.w3.org/2000/svg"><path d="m235.984375 396.921875 245.992187-20.019531v-97.269532l-10.007812-19.988281 10.007812-47.1875v-137.410156l-245.992187-20.015625zm0 0" fill="#a05f4b"/><path d="m30.023438 75.046875v137.410156l10.007812 45.851563-10.007812 21.324218v97.269532l225.976562 20.019531v-341.890625zm0 0" fill="#c47e4e"/><path d="m416.660156 343.316406-65.332031-130.882812v-137.386719h-30v137.386719l-65.328125 130.882812-10.007812 33.585938h26.773437l63.5625-127.347656 63.566406 127.347656h33.527344l48.554687-97.269532v-67.175781zm0 0" fill="#e1d3ce"/><path d="m190.671875 212.433594v-137.386719h-30v137.386719l-65.332031 130.882812-65.316406-130.859375v67.175781l48.554687 97.269532h33.527344l63.566406-127.347656 63.5625 127.347656h16.765625v-33.585938zm0 0" fill="#fff5f5"/><path d="m481.976562 436.953125v-60.050781h-225.976562l-20.015625 60.050781zm0 0" fill="#c47e4e"/><path d="m30.023438 376.902344h225.976562v60.050781h-225.976562zm0 0" fill="#f2d1a5"/><path d="m512 451.953125v-30h-256l-10.007812 15 10.007812 15zm0 0" fill="#541720"/><path d="m512 391.902344v-30h-256l-10.007812 15 10.007812 15zm0 0" fill="#541720"/><path d="m0 421.953125h256v30h-256zm0 0" fill="#7b232f"/><path d="m0 361.902344h256v30h-256zm0 0" fill="#7b232f"/><path d="m235.984375 15 20.015625 60.046875h225.976562v-60.046875zm0 0" fill="#c47e4e"/><path d="m30.023438 15h225.976562v60.046875h-225.976562zm0 0" fill="#f2d1a5"/><path d="m512 0h-256l-10.007812 15 10.007812 15h256zm0 0" fill="#541720"/><path d="m512 90.046875v-30h-256l-10.007812 15 10.007812 15zm0 0" fill="#541720"/><g fill="#7b232f"><path d="m0 0h256v30h-256zm0 0"/><path d="m0 60.046875h256v30h-256zm0 0"/></g></svg>